<svg id="Group_56" data-name="Group 56" xmlns="http://www.w3.org/2000/svg" width="40" height="40" viewBox="0 0 40 40">
  <rect id="Rectangle_5" data-name="Rectangle 5" width="39" height="39" rx="7.5" transform="translate(39.5 39.5) rotate(180)" fill="#fbf4ff" stroke="#652b88" stroke-width="1"/>
  <path id="Path_79" data-name="Path 79" d="M14.25,14a1.026,1.026,0,0,1,1.05-1H28.95a1,1,0,1,1,0,2H15.3A1.026,1.026,0,0,1,14.25,14Z" fill="#652b88" fill-rule="evenodd"/>
  <path id="Path_80" data-name="Path 80" d="M14.25,20a1.026,1.026,0,0,1,1.05-1H28.95a1,1,0,1,1,0,2H15.3A1.026,1.026,0,0,1,14.25,20Z" fill="#652b88" fill-rule="evenodd"/>
  <path id="Path_81" data-name="Path 81" d="M14.25,26a1.026,1.026,0,0,1,1.05-1H28.95a1,1,0,1,1,0,2H15.3A1.026,1.026,0,0,1,14.25,26Z" fill="#652b88" fill-rule="evenodd"/>
  <path id="Path_82" data-name="Path 82" d="M9,14a1.026,1.026,0,0,1,1.05-1h.01a1,1,0,1,1,0,2h-.01A1.026,1.026,0,0,1,9,14Z" fill="#652b88" fill-rule="evenodd"/>
  <path id="Path_83" data-name="Path 83" d="M9,20a1.026,1.026,0,0,1,1.05-1h.01a1,1,0,1,1,0,2h-.01A1.026,1.026,0,0,1,9,20Z" fill="#652b88" fill-rule="evenodd"/>
  <path id="Path_84" data-name="Path 84" d="M9,26a1.026,1.026,0,0,1,1.05-1h.01a1,1,0,1,1,0,2h-.01A1.026,1.026,0,0,1,9,26Z" fill="#652b88" fill-rule="evenodd"/>
  <path id="Path_91" data-name="Path 91" d="M9,14a1.026,1.026,0,0,1,1.05-1h.01a1,1,0,1,1,0,2h-.01A1.026,1.026,0,0,1,9,14Z" fill="#652b88" fill-rule="evenodd"/>
  <path id="Path_92" data-name="Path 92" d="M9,20a1.026,1.026,0,0,1,1.05-1h.01a1,1,0,1,1,0,2h-.01A1.026,1.026,0,0,1,9,20Z" fill="#652b88" fill-rule="evenodd"/>
  <path id="Path_93" data-name="Path 93" d="M9,26a1.026,1.026,0,0,1,1.05-1h.01a1,1,0,1,1,0,2h-.01A1.026,1.026,0,0,1,9,26Z" fill="#652b88" fill-rule="evenodd"/>
</svg>
