<svg xmlns="http://www.w3.org/2000/svg" width="15" height="15" viewBox="0 0 15 15">
  <g id="Group_65" data-name="Group 65" transform="translate(-537 -1391)">
    <g id="Group_64" data-name="Group 64" transform="translate(536.5 1390.5)">
      <path id="Path_106" data-name="Path 106" d="M9.5,1.25A.75.75,0,0,1,10.25.5h3A2.25,2.25,0,0,1,15.5,2.75v10.5a2.25,2.25,0,0,1-2.25,2.25h-3a.75.75,0,0,1,0-1.5h3a.75.75,0,0,0,.75-.75V2.75A.75.75,0,0,0,13.25,2h-3A.75.75,0,0,1,9.5,1.25Z" fill="#21c9aa" fill-rule="evenodd"/>
      <path id="Path_107" data-name="Path 107" d="M5.97,3.72a.75.75,0,0,1,1.061,0l3.75,3.75a.75.75,0,0,1,0,1.061L7.03,12.28A.75.75,0,0,1,5.97,11.22L9.189,8,5.97,4.78A.75.75,0,0,1,5.97,3.72Z" fill="#21c9aa" fill-rule="evenodd"/>
      <path id="Path_108" data-name="Path 108" d="M.5,8a.75.75,0,0,1,.75-.75h9a.75.75,0,0,1,0,1.5h-9A.75.75,0,0,1,.5,8Z" fill="#21c9aa" fill-rule="evenodd"/>
    </g>
  </g>
</svg>
