<svg xmlns="http://www.w3.org/2000/svg" width="70.879" height="1518.306" viewBox="0 0 70.879 1518.306">
  <g id="Group_4" data-name="Group 4" transform="translate(-34.121 -189.027)">
    <path id="Path_48" data-name="Path 48" d="M40,378.111c.2-.579.408-1.155.6-1.736.331-.981.651-1.966.984-2.946a4.456,4.456,0,0,1,3.477-3.085c1.254-.277,2.507-.562,3.763-.832.151-.033.205-.087.2-.243q-.015-.7,0-1.4a.286.286,0,0,0-.161-.276,5.89,5.89,0,0,1-2.85-5.162c-.01-.974-.006-1.949.006-2.923a3.141,3.141,0,0,1,.75-1.995,6.5,6.5,0,0,1,5.856-2.43,6.372,6.372,0,0,1,4.506,2.375,3.188,3.188,0,0,1,.8,2.1c.006,1.1.044,2.2-.017,3.3a5.776,5.776,0,0,1-2.771,4.7.41.41,0,0,0-.221.409c.015.42.012.842,0,1.262-.005.175.032.25.226.3q1.942.416,3.875.864a4.393,4.393,0,0,1,3.333,3.027c.511,1.488,1,2.983,1.5,4.474.192.577.105.81-.415,1.118h-.375a1.06,1.06,0,0,1-.562-.72c-.476-1.466-.953-2.931-1.465-4.384a4.085,4.085,0,0,0-.622-1.137,3.484,3.484,0,0,0-2.476-1.165c0,.468.008.912,0,1.355-.005.172.058.234.216.29a2.822,2.822,0,0,1,2.015,2.528c.072.774.017,1.558.037,2.337a.824.824,0,0,1-.553.9H58.579c-.062-.032-.125-.062-.181-.1a.675.675,0,0,1-.344-.645.658.658,0,0,1,.4-.589,2.21,2.21,0,0,1,.339-.1c0-.556.037-1.119-.009-1.674a1.542,1.542,0,0,0-3.068-.026c-.052.563-.01,1.134-.01,1.7.533.119.771.381.732.8a.759.759,0,0,1-.521.625H54.835a.821.821,0,0,1-.557-.893c.017-.647,0-1.295.005-1.942a2.926,2.926,0,0,1,2.087-2.942c.121-.043.175-.09.173-.226q-.011-.783,0-1.567c0-.139-.052-.188-.182-.212-.533-.112-1.062-.233-1.6-.358a.234.234,0,0,0-.3.136c-.6,1.013-1.206,2.021-1.812,3.029a.719.719,0,0,1-1.352,0c-.606-1.008-1.214-2.015-1.812-3.027a.232.232,0,0,0-.3-.136c-.522.125-1.046.25-1.573.351-.173.034-.205.11-.2.266.006.991.008,1.981,0,2.971a.324.324,0,0,0,.217.349,2.2,2.2,0,0,1-.064,4.023,5.043,5.043,0,0,1-.55.179h-.609a.356.356,0,0,0-.082-.038,2.205,2.205,0,0,1-1.792-1.855,2.175,2.175,0,0,1,1.328-2.34c.14-.062.152-.147.152-.27V371.8c0-.067-.008-.134-.014-.229-.25.056-.473.109-.7.157a3.056,3.056,0,0,0-2.392,2.157c-.494,1.465-.985,2.924-1.461,4.391a1.07,1.07,0,0,1-.562.721h-.375a1.064,1.064,0,0,1-.517-.515ZM51.972,367.1c.324-.042.651-.063.971-.129a4.557,4.557,0,0,0,3.592-4.434c0-.067-.049-.179-.1-.2a3.567,3.567,0,0,1-1.424-1.071.315.315,0,0,0-.4-.087,7.339,7.339,0,0,1-5.211.015.376.376,0,0,0-.481.105,3.449,3.449,0,0,1-1.39,1.038c-.054.019-.1.144-.1.219A4.6,4.6,0,0,0,51.972,367.1Zm4.5-6.327.063-.041c0-.389,0-.778,0-1.167A1.851,1.851,0,0,0,56.1,358.4a4.99,4.99,0,0,0-3.579-1.925,5.1,5.1,0,0,0-4.705,1.993,1.7,1.7,0,0,0-.381,1.034c-.01.375-.007.75-.006,1.125a.866.866,0,0,0,.038.16c.305-.309.582-.592.862-.875.418-.42.6-.444,1.14-.206a6,6,0,0,0,5.028,0c.559-.245.723-.225,1.159.21.276.279.548.565.822.847Zm-6.043,7.5c0,.493-.006.945,0,1.395a.7.7,0,0,0,.092.325c.381.651.772,1.3,1.161,1.944l.283.471a.9.9,0,0,0,.073-.088q.715-1.187,1.429-2.38a.332.332,0,0,0,.054-.15c0-.5,0-.994,0-1.514a6.082,6.082,0,0,1-3.1,0ZM46.716,377.6a.808.808,0,1,0-.565-.237A.81.81,0,0,0,46.716,377.6Z" transform="translate(-5 150)"/>
    <g id="Group_15" data-name="Group 15" transform="translate(-7 165)">
      <path id="Path_17" data-name="Path 17" d="M65.091,425.142l-.242-.243a3.107,3.107,0,0,0-4.3-.083c-.084.078.132-.136-2.095,2.091v-6.754a2.112,2.112,0,0,0-2.127-1.981h-.873v-1.594h.464a1.434,1.434,0,0,0,1.411-1.383v-2.722A1.5,1.5,0,0,0,55.917,411H44.583a1.5,1.5,0,0,0-1.411,1.473V415.2a1.434,1.434,0,0,0,1.411,1.383h.37v1.594h-.732A2.211,2.211,0,0,0,42,420.153v12.784A2.293,2.293,0,0,0,44.221,435h12.1a2.079,2.079,0,0,0,.893-.209,3.105,3.105,0,0,0,3.312-.7l4.561-4.561A3.106,3.106,0,0,0,65.091,425.142Zm-3.636.752a1.7,1.7,0,0,1,2.4,0l.242.242a1.7,1.7,0,0,1,.066,2.33c-.052.058.132-.128-1.8,1.8l-2.642-2.642Zm-10.5-10.722v-2.766H52.68v2.766Zm-3.247,0v-2.766h1.84v2.766Zm8.215-2.685v2.671a11.951,11.951,0,0,1-1.835.014v-2.766h1.779A.241.241,0,0,1,55.922,412.487Zm-11.344,2.671v-2.671a.241.241,0,0,1,.056-.081H46.3v2.766A10.758,10.758,0,0,1,44.578,415.158Zm1.781,1.42h7.688v1.594H46.359Zm-2.953,16.359V420.153c0-.206.411-.575.815-.575h12.1a.748.748,0,0,1,.721.575v8.16L55.9,429.46a3.108,3.108,0,0,0-.228,4.134H44.221A.943.943,0,0,1,43.406,432.937Zm16.13.16a1.7,1.7,0,0,1-2.4,0l-.242-.243a1.7,1.7,0,0,1,0-2.4l1.835-1.835,2.642,2.642Z"/>
      <path id="Path_48-2" data-name="Path 48" d="M7.3,3.883H4.953V1.533a.7.7,0,1,0-1.406,0v2.35H1.2a.7.7,0,1,0,0,1.406h2.35v2.35a.7.7,0,1,0,1.406,0V5.289H7.3a.7.7,0,0,0,0-1.406Z" transform="translate(46.506 422.17)"/>
    </g>
    <g id="Group_16" data-name="Group 16" transform="translate(-10.196 4)">
      <path id="Path_29" data-name="Path 29" d="M49.444,641.323v-.7h-.7v.7Zm6.738.7a.7.7,0,0,0,0-1.4Zm-8.437-1.4a.7.7,0,0,0,0,1.4Zm-1.677,16.5.641.282Zm8.533-7.3.64-.283Zm-5.326,0-.641-.281ZM56,659.231H47.9v1.4H56ZM50.144,649.02v-7.7h-1.4v7.7Zm-.7-7H54.43v-1.4H49.444Zm4.286-.7v7.694h1.4v-7.694Zm.7.7h1.752v-1.4H54.43Zm1.752-1.4H47.745v1.4h8.437Zm-2.221,9.487,2.151,4.858,1.28-.566-2.151-4.859Zm2.151,4.858L57.19,657.4l1.28-.566L57.392,654.4Zm-9.4,2.44,1.072-2.441L46.5,654.4l-1.072,2.441Zm1.072-2.441,2.135-4.861-1.282-.563L46.5,654.4Zm8.971-.282c.018-.7.018-.7.018-.7h-.018l-.065,0c-.059,0-.147-.007-.262-.014-.23-.015-.565-.042-.981-.089a23.912,23.912,0,0,1-3.234-.6l-.351,1.355a25.133,25.133,0,0,0,3.427.632c.44.05.8.079,1.049.095.125.008.223.013.291.016l.079,0h.031S56.734,655.385,56.752,654.685Zm-4.542-1.4a7.138,7.138,0,0,0-3.792.117,8.219,8.219,0,0,0-1.175.444c-.141.066-.253.124-.332.167-.039.021-.071.039-.093.052l-.027.015-.008.005,0,0h0l.362.6.362.6h0l.013-.007.062-.035c.057-.031.145-.077.261-.131a7.007,7.007,0,0,1,.976-.368,5.74,5.74,0,0,1,3.045-.1ZM47.9,659.231a1.3,1.3,0,0,1-1.19-1.823l-1.282-.563a2.7,2.7,0,0,0,2.472,3.786Zm8.1,1.4a2.7,2.7,0,0,0,2.469-3.793l-1.28.566A1.3,1.3,0,0,1,56,659.231ZM53.73,649.017a2.7,2.7,0,0,0,.231,1.093l1.28-.567a1.3,1.3,0,0,1-.111-.526Zm-4.986,0a1.3,1.3,0,0,1-.11.523l1.282.563a2.7,2.7,0,0,0,.228-1.086Z"/>
    </g>
    <g id="Group_17" data-name="Group 17" transform="translate(-7.391 11)">
      <path id="Path_34" data-name="Path 34" d="M46.329,703.3l.6,7.172a1.042,1.042,0,0,0,1.046.966H58.895a1.055,1.055,0,0,0,1.04-.9l.95-6.559a.587.587,0,0,0-.112-.438.58.58,0,0,0-.388-.231C60.176,703.318,51.5,703.306,46.329,703.3Zm1.647,9.638a2.562,2.562,0,0,1-2.539-2.343L44.521,699.7l-1.507-.26a.752.752,0,0,1-.612-.868.759.759,0,0,1,.867-.611l2.08.36a.753.753,0,0,1,.619.677l.235,2.8c14.276.006,14.322.013,14.391.021a2.092,2.092,0,0,1,1.775,2.37l-.949,6.558a2.562,2.562,0,0,1-2.523,2.189H47.976Z" fill-rule="evenodd"/>
      <path id="Path_35" data-name="Path 35" d="M57.288,707H54.516a.75.75,0,0,1,0-1.5h2.772a.75.75,0,0,1,0,1.5Z" fill-rule="evenodd"/>
      <path id="Path_36" data-name="Path 36" d="M47.544,716a.205.205,0,0,0-.2.205c0,.227.411.227.411,0A.206.206,0,0,0,47.544,716Zm0,1.5a1.294,1.294,0,1,1,1.3-1.295A1.3,1.3,0,0,1,47.544,717.5Z" fill-rule="evenodd"/>
      <path id="Path_37" data-name="Path 37" d="M58.825,716a.205.205,0,0,0-.2.205c0,.229.411.227.41,0A.206.206,0,0,0,58.825,716Zm0,1.5a1.294,1.294,0,1,1,1.3-1.295A1.3,1.3,0,0,1,58.825,717.5Z" fill-rule="evenodd"/>
    </g>
    <g id="Group_18" data-name="Group 18" transform="translate(-5.938 462)">
      <path id="Path_4" data-name="Path 4" d="M57.6,303.379a3.652,3.652,0,1,1,0,7.3.75.75,0,0,1,0-1.5,2.152,2.152,0,1,0,0-4.3.75.75,0,0,1,0-1.5Z" fill="#200e32"/>
      <path id="Path_5" data-name="Path 5" d="M58.981,312.337a10.129,10.129,0,0,1,1.515.218,2.869,2.869,0,0,1,2.246,1.392,2.133,2.133,0,0,1,0,1.829,2.879,2.879,0,0,1-2.239,1.4.75.75,0,0,1-.3-1.47c.652-.134,1.08-.348,1.186-.57a.631.631,0,0,0,0-.54c-.107-.224-.538-.439-1.2-.569a8.68,8.68,0,0,0-1.31-.19.75.75,0,1,1,.1-1.5Z" fill="#200e32"/>
      <path id="Path_6" data-name="Path 6" d="M46.291,303.379a.75.75,0,0,1,0,1.5,2.152,2.152,0,1,0,0,4.3.75.75,0,0,1,0,1.5,3.652,3.652,0,1,1,0-7.3Z" fill="#200e32"/>
      <path id="Path_7" data-name="Path 7" d="M44.9,312.337a.75.75,0,1,1,.1,1.5,8.623,8.623,0,0,0-1,.126l-.333.068c-.641.125-1.072.341-1.179.565a.627.627,0,0,0,0,.54c.105.222.533.436,1.185.57a.75.75,0,0,1-.3,1.47,2.876,2.876,0,0,1-2.237-1.4,2.124,2.124,0,0,1,0-1.829,2.707,2.707,0,0,1,2.017-1.344l.207-.044A10.272,10.272,0,0,1,44.9,312.337Z" fill="#200e32"/>
      <path id="Path_8" data-name="Path 8" d="M51.939,312.96c-4.3,0-6.771.839-6.771,3.225s2.458,3.207,6.771,3.207l.6-.006c3.929-.077,6.169-.947,6.169-3.219,0-2.326-2.343-3.167-6.466-3.206Z" fill="#200e32"/>
      <path id="Path_9" data-name="Path 9" d="M51.938,303.938a3.109,3.109,0,1,1-3.108,3.108A3.095,3.095,0,0,1,51.938,303.938Z" fill="#200e32"/>
    </g>
    <g id="Group_19" data-name="Group 19" transform="translate(-4.279 30)">
      <path id="Path_49" data-name="Path 49" d="M60.807,815.235l-.622-1.08a1.913,1.913,0,0,0-2.609-.705h0a1.905,1.905,0,0,1-2.609-.677,1.832,1.832,0,0,1-.256-.916h0a1.914,1.914,0,0,0-1.913-1.968H51.544a1.9,1.9,0,0,0-1.9,1.913h0a1.913,1.913,0,0,1-1.913,1.886,1.832,1.832,0,0,1-.915-.256h0a1.912,1.912,0,0,0-2.609.705l-.668,1.1a1.913,1.913,0,0,0,.7,2.609h0a1.913,1.913,0,0,1,0,3.313h0a1.9,1.9,0,0,0-.7,2.6h0l.632,1.089a1.912,1.912,0,0,0,2.609.741h0a1.9,1.9,0,0,1,2.6.7,1.831,1.831,0,0,1,.256.915h0a1.913,1.913,0,0,0,1.913,1.913H52.8a1.913,1.913,0,0,0,1.913-1.9h0a1.9,1.9,0,0,1,1.913-1.913,1.95,1.95,0,0,1,.915.257h0a1.913,1.913,0,0,0,2.609-.7h0l.659-1.1a1.9,1.9,0,0,0-.7-2.609h0a1.9,1.9,0,0,1-.7-2.609,1.88,1.88,0,0,1,.7-.7h0a1.914,1.914,0,0,0,.7-2.6h0Z" transform="translate(-4 -16)" fill="none" stroke="#11142d" stroke-linecap="round" stroke-linejoin="round" stroke-width="1.5" fill-rule="evenodd"/>
      <circle id="Ellipse_1" data-name="Ellipse 1" cx="2.636" cy="2.636" r="2.636" transform="translate(45.539 800.864)" fill="none" stroke="#11142d" stroke-linecap="round" stroke-linejoin="round" stroke-width="1.5"/>
    </g>
    <g id="Group_22" data-name="Group 22" transform="translate(-4.756)">
      <g id="Group_14" data-name="Group 14" transform="translate(-3)">
        <path id="Path_2" data-name="Path 2" d="M61.523,196.753a8.311,8.311,0,0,0-7.963-6.975.715.715,0,0,0-.741.687h0v.064l.448,6.709a.824.824,0,0,0,.869.769l6.728-.449a.713.713,0,0,0,.659-.769Z" fill="none" stroke="#2c2c2e" stroke-linecap="round" stroke-linejoin="round" stroke-width="1.5" fill-rule="evenodd"/>
        <path id="Path_3" data-name="Path 3" d="M48.9,193.769a.915.915,0,0,1,1.043.522.821.821,0,0,1,.082.3c.091,1.3.284,4.146.394,5.684a1.043,1.043,0,0,0,1.117.97h0l5.648-.348a.916.916,0,0,1,.97.916h0a7.7,7.7,0,0,1-14.426,3.194,7.321,7.321,0,0,1-.915-2.8,4.716,4.716,0,0,1-.055-.915,7.707,7.707,0,0,1,6.133-7.524" fill="none" stroke="#2c2c2e" stroke-linecap="round" stroke-linejoin="round" stroke-width="1.5"/>
      </g>
      <g id="Group_20" data-name="Group 20" transform="translate(-3 30)">
        <path id="Path_2-2" data-name="Path 2" d="M61.523,196.753a8.311,8.311,0,0,0-7.963-6.975.715.715,0,0,0-.741.687h0v.064l.448,6.709a.824.824,0,0,0,.869.769l6.728-.449a.713.713,0,0,0,.659-.769Z" fill="none" stroke="#fff" stroke-linecap="round" stroke-linejoin="round" stroke-width="1.5" fill-rule="evenodd"/>
        <path id="Path_3-2" data-name="Path 3" d="M48.9,193.769a.915.915,0,0,1,1.043.522.821.821,0,0,1,.082.3c.091,1.3.284,4.146.394,5.684a1.043,1.043,0,0,0,1.117.97h0l5.648-.348a.916.916,0,0,1,.97.916h0a7.7,7.7,0,0,1-14.426,3.194,7.321,7.321,0,0,1-.915-2.8,4.716,4.716,0,0,1-.055-.915,7.707,7.707,0,0,1,6.133-7.524" fill="none" stroke="#fff" stroke-linecap="round" stroke-linejoin="round" stroke-width="1.5"/>
      </g>
    </g>
    <g id="Group_23" data-name="Group 23" transform="translate(-5)">
      <g id="Group_5" data-name="Group 5" transform="translate(39 253)">
        <path id="Path_39" data-name="Path 39" d="M14.443,12.31h.009" fill="none" stroke="#000" stroke-linecap="round" stroke-linejoin="round" stroke-width="1.5"/>
        <path id="Path_40" data-name="Path 40" d="M10.005,12.31h.009" fill="none" stroke="#000" stroke-linecap="round" stroke-linejoin="round" stroke-width="1.5"/>
        <path id="Path_41" data-name="Path 41" d="M5.558,12.31h.009" fill="none" stroke="#000" stroke-linecap="round" stroke-linejoin="round" stroke-width="1.5"/>
        <path id="Path_42" data-name="Path 42" d="M14.443,16.2h.009" fill="none" stroke="#000" stroke-linecap="round" stroke-linejoin="round" stroke-width="1.5"/>
        <path id="Path_43" data-name="Path 43" d="M10.005,16.2h.009" fill="none" stroke="#000" stroke-linecap="round" stroke-linejoin="round" stroke-width="1.5"/>
        <path id="Path_44" data-name="Path 44" d="M5.558,16.2h.009" fill="none" stroke="#000" stroke-linecap="round" stroke-linejoin="round" stroke-width="1.5"/>
        <path id="Path_45" data-name="Path 45" d="M14.043,1V4.291" fill="none" stroke="#000" stroke-linecap="round" stroke-linejoin="round" stroke-width="1.5"/>
        <path id="Path_46" data-name="Path 46" d="M5.965,1V4.291" fill="none" stroke="#000" stroke-linecap="round" stroke-linejoin="round" stroke-width="1.5"/>
        <path id="Path_47" data-name="Path 47" d="M14.238,2.579H5.771C2.834,2.579,1,4.215,1,7.222v9.05C1,19.326,2.834,21,5.771,21h8.458C17.175,21,19,19.355,19,16.347V7.222C19.009,4.215,17.184,2.579,14.238,2.579Z" fill="none" stroke="#000" stroke-linecap="round" stroke-linejoin="round" stroke-width="1.5" fill-rule="evenodd"/>
      </g>
      <g id="Group_21" data-name="Group 21" transform="translate(39 285)">
        <path id="Path_39-2" data-name="Path 39" d="M14.443,12.31h.009" fill="none" stroke="#fff" stroke-linecap="round" stroke-linejoin="round" stroke-width="1.5"/>
        <path id="Path_40-2" data-name="Path 40" d="M10.005,12.31h.009" fill="none" stroke="#fff" stroke-linecap="round" stroke-linejoin="round" stroke-width="1.5"/>
        <path id="Path_41-2" data-name="Path 41" d="M5.558,12.31h.009" fill="none" stroke="#fff" stroke-linecap="round" stroke-linejoin="round" stroke-width="1.5"/>
        <path id="Path_42-2" data-name="Path 42" d="M14.443,16.2h.009" fill="none" stroke="#fff" stroke-linecap="round" stroke-linejoin="round" stroke-width="1.5"/>
        <path id="Path_43-2" data-name="Path 43" d="M10.005,16.2h.009" fill="none" stroke="#fff" stroke-linecap="round" stroke-linejoin="round" stroke-width="1.5"/>
        <path id="Path_44-2" data-name="Path 44" d="M5.558,16.2h.009" fill="none" stroke="#fff" stroke-linecap="round" stroke-linejoin="round" stroke-width="1.5"/>
        <path id="Path_45-2" data-name="Path 45" d="M14.043,1V4.291" fill="none" stroke="#fff" stroke-linecap="round" stroke-linejoin="round" stroke-width="1.5"/>
        <path id="Path_46-2" data-name="Path 46" d="M5.965,1V4.291" fill="none" stroke="#fff" stroke-linecap="round" stroke-linejoin="round" stroke-width="1.5"/>
        <path id="Path_47-2" data-name="Path 47" d="M14.238,2.579H5.771C2.834,2.579,1,4.215,1,7.222v9.05C1,19.326,2.834,21,5.771,21h8.458C17.175,21,19,19.355,19,16.347V7.222C19.009,4.215,17.184,2.579,14.238,2.579Z" fill="none" stroke="#fff" stroke-linecap="round" stroke-linejoin="round" stroke-width="1.5" fill-rule="evenodd"/>
      </g>
    </g>
    <g id="Group_25" data-name="Group 25" transform="translate(-4 6)">
      <g id="Group_11" data-name="Group 11" transform="translate(-2 -156)">
        <path id="Path_18" data-name="Path 18" d="M46.371,477.2v6.86" fill="none" stroke="#000" stroke-linecap="round" stroke-linejoin="round" stroke-width="1.5"/>
        <path id="Path_19" data-name="Path 19" d="M51.039,473.919v10.143" fill="none" stroke="#000" stroke-linecap="round" stroke-linejoin="round" stroke-width="1.5"/>
        <path id="Path_20" data-name="Path 20" d="M55.629,480.827v3.235" fill="none" stroke="#000" stroke-linecap="round" stroke-linejoin="round" stroke-width="1.5"/>
        <path id="Path_21" data-name="Path 21" d="M55.686,469H46.314C43.048,469,41,471.312,41,474.585v8.83c0,3.273,2.038,5.585,5.314,5.585h9.371c3.276,0,5.314-2.312,5.314-5.585v-8.83C61,471.312,58.962,469,55.686,469Z" fill="none" stroke="#000" stroke-linecap="round" stroke-linejoin="round" stroke-width="1.5" fill-rule="evenodd"/>
      </g>
      <g id="Group_24" data-name="Group 24" transform="translate(-2 -125)">
        <path id="Path_18-2" data-name="Path 18" d="M46.371,477.2v6.86" fill="none" stroke="#fff" stroke-linecap="round" stroke-linejoin="round" stroke-width="1.5"/>
        <path id="Path_19-2" data-name="Path 19" d="M51.039,473.919v10.143" fill="none" stroke="#fff" stroke-linecap="round" stroke-linejoin="round" stroke-width="1.5"/>
        <path id="Path_20-2" data-name="Path 20" d="M55.629,480.827v3.235" fill="none" stroke="#fff" stroke-linecap="round" stroke-linejoin="round" stroke-width="1.5"/>
        <path id="Path_21-2" data-name="Path 21" d="M55.686,469H46.314C43.048,469,41,471.312,41,474.585v8.83c0,3.273,2.038,5.585,5.314,5.585h9.371c3.276,0,5.314-2.312,5.314-5.585v-8.83C61,471.312,58.962,469,55.686,469Z" fill="none" stroke="#fff" stroke-linecap="round" stroke-linejoin="round" stroke-width="1.5" fill-rule="evenodd"/>
      </g>
    </g>
    <g id="Group_27" data-name="Group 27" transform="translate(-4.75 13)">
      <g id="Group_12" data-name="Group 12" transform="translate(-4 -157)">
        <path id="Path_22" data-name="Path 22" d="M55.716,539.223H48.5" fill="none" stroke="#11142d" stroke-linecap="round" stroke-linejoin="round" stroke-width="1.5"/>
        <path id="Path_23" data-name="Path 23" d="M55.716,535.037H48.5" fill="none" stroke="#11142d" stroke-linecap="round" stroke-linejoin="round" stroke-width="1.5"/>
        <path id="Path_24" data-name="Path 24" d="M51.251,530.86H48.5" fill="none" stroke="#11142d" stroke-linecap="round" stroke-linejoin="round" stroke-width="1.5"/>
        <path id="Path_25" data-name="Path 25" d="M55.908,525.75l-7.689,0a4.251,4.251,0,0,0-4.469,4.6v9.2a4.254,4.254,0,0,0,4.506,4.607l7.689,0a4.252,4.252,0,0,0,4.47-4.6v-9.2A4.255,4.255,0,0,0,55.908,525.75Z" fill="none" stroke="#11142d" stroke-linecap="round" stroke-linejoin="round" stroke-width="1.5" fill-rule="evenodd"/>
      </g>
      <g id="Group_26" data-name="Group 26" transform="translate(-4 -127)">
        <path id="Path_22-2" data-name="Path 22" d="M55.716,539.223H48.5" fill="none" stroke="#fff" stroke-linecap="round" stroke-linejoin="round" stroke-width="1.5"/>
        <path id="Path_23-2" data-name="Path 23" d="M55.716,535.037H48.5" fill="none" stroke="#fff" stroke-linecap="round" stroke-linejoin="round" stroke-width="1.5"/>
        <path id="Path_24-2" data-name="Path 24" d="M51.251,530.86H48.5" fill="none" stroke="#fff" stroke-linecap="round" stroke-linejoin="round" stroke-width="1.5"/>
        <path id="Path_25-2" data-name="Path 25" d="M55.908,525.75l-7.689,0a4.251,4.251,0,0,0-4.469,4.6v9.2a4.254,4.254,0,0,0,4.506,4.607l7.689,0a4.252,4.252,0,0,0,4.47-4.6v-9.2A4.255,4.255,0,0,0,55.908,525.75Z" fill="none" stroke="#fff" stroke-linecap="round" stroke-linejoin="round" stroke-width="1.5" fill-rule="evenodd"/>
      </g>
    </g>
    <g id="Group_29" data-name="Group 29" transform="translate(-4.75 20)">
      <g id="Group_13" data-name="Group 13" transform="translate(-3 -156)">
        <path id="Path_26" data-name="Path 26" d="M61.21,586.9v8.15c0,3.02-1.89,5.15-4.91,5.15H47.65c-3.02,0-4.9-2.13-4.9-5.15V586.9c0-3.02,1.89-5.149,4.9-5.149H56.3C59.32,581.751,61.21,583.88,61.21,586.9Z" fill="none" stroke="#000" stroke-linecap="round" stroke-linejoin="round" stroke-width="1.5" fill-rule="evenodd"/>
        <path id="Path_27" data-name="Path 27" d="M45.281,595.432l1.529-1.613a1.4,1.4,0,0,1,2.032-.008l.885.9a1.433,1.433,0,0,0,2.131-.094l2.229-2.711a1.687,1.687,0,0,1,2.515-.1l2.076,2.142" fill="none" stroke="#000" stroke-linecap="round" stroke-linejoin="round" stroke-width="1.5"/>
        <path id="Path_28" data-name="Path 28" d="M50.314,588.134a1.754,1.754,0,1,1-1.754-1.754A1.755,1.755,0,0,1,50.314,588.134Z" fill="none" stroke="#000" stroke-linecap="round" stroke-linejoin="round" stroke-width="1.5" fill-rule="evenodd"/>
      </g>
      <g id="Group_28" data-name="Group 28" transform="translate(-3 -126)">
        <path id="Path_26-2" data-name="Path 26" d="M61.21,586.9v8.15c0,3.02-1.89,5.15-4.91,5.15H47.65c-3.02,0-4.9-2.13-4.9-5.15V586.9c0-3.02,1.89-5.149,4.9-5.149H56.3C59.32,581.751,61.21,583.88,61.21,586.9Z" fill="none" stroke="#fff" stroke-linecap="round" stroke-linejoin="round" stroke-width="1.5" fill-rule="evenodd"/>
        <path id="Path_27-2" data-name="Path 27" d="M45.281,595.432l1.529-1.613a1.4,1.4,0,0,1,2.032-.008l.885.9a1.433,1.433,0,0,0,2.131-.094l2.229-2.711a1.687,1.687,0,0,1,2.515-.1l2.076,2.142" fill="none" stroke="#fff" stroke-linecap="round" stroke-linejoin="round" stroke-width="1.5"/>
        <path id="Path_28-2" data-name="Path 28" d="M50.314,588.134a1.754,1.754,0,1,1-1.754-1.754A1.755,1.755,0,0,1,50.314,588.134Z" fill="none" stroke="#fff" stroke-linecap="round" stroke-linejoin="round" stroke-width="1.5" fill-rule="evenodd"/>
      </g>
    </g>
    <path id="Path_50" data-name="Path 50" d="M40,378.111c.2-.579.408-1.155.6-1.736.331-.981.651-1.966.984-2.946a4.456,4.456,0,0,1,3.477-3.085c1.254-.277,2.507-.562,3.763-.832.151-.033.205-.087.2-.243q-.015-.7,0-1.4a.286.286,0,0,0-.161-.276,5.89,5.89,0,0,1-2.85-5.162c-.01-.974-.006-1.949.006-2.923a3.141,3.141,0,0,1,.75-1.995,6.5,6.5,0,0,1,5.856-2.43,6.372,6.372,0,0,1,4.506,2.375,3.188,3.188,0,0,1,.8,2.1c.006,1.1.044,2.2-.017,3.3a5.776,5.776,0,0,1-2.771,4.7.41.41,0,0,0-.221.409c.015.42.012.842,0,1.262-.005.175.032.25.226.3q1.942.416,3.875.864a4.393,4.393,0,0,1,3.333,3.027c.511,1.488,1,2.983,1.5,4.474.192.577.105.81-.415,1.118h-.375a1.06,1.06,0,0,1-.562-.72c-.476-1.466-.953-2.931-1.465-4.384a4.085,4.085,0,0,0-.622-1.137,3.484,3.484,0,0,0-2.476-1.165c0,.468.008.912,0,1.355-.005.172.058.234.216.29a2.822,2.822,0,0,1,2.015,2.528c.072.774.017,1.558.037,2.337a.824.824,0,0,1-.553.9H58.579c-.062-.032-.125-.062-.181-.1a.675.675,0,0,1-.344-.645.658.658,0,0,1,.4-.589,2.21,2.21,0,0,1,.339-.1c0-.556.037-1.119-.009-1.674a1.542,1.542,0,0,0-3.068-.026c-.052.563-.01,1.134-.01,1.7.533.119.771.381.732.8a.759.759,0,0,1-.521.625H54.835a.821.821,0,0,1-.557-.893c.017-.647,0-1.295.005-1.942a2.926,2.926,0,0,1,2.087-2.942c.121-.043.175-.09.173-.226q-.011-.783,0-1.567c0-.139-.052-.188-.182-.212-.533-.112-1.062-.233-1.6-.358a.234.234,0,0,0-.3.136c-.6,1.013-1.206,2.021-1.812,3.029a.719.719,0,0,1-1.352,0c-.606-1.008-1.214-2.015-1.812-3.027a.232.232,0,0,0-.3-.136c-.522.125-1.046.25-1.573.351-.173.034-.205.11-.2.266.006.991.008,1.981,0,2.971a.324.324,0,0,0,.217.349,2.2,2.2,0,0,1-.064,4.023,5.043,5.043,0,0,1-.55.179h-.609a.356.356,0,0,0-.082-.038,2.205,2.205,0,0,1-1.792-1.855,2.175,2.175,0,0,1,1.328-2.34c.14-.062.152-.147.152-.27V371.8c0-.067-.008-.134-.014-.229-.25.056-.473.109-.7.157a3.056,3.056,0,0,0-2.392,2.157c-.494,1.465-.985,2.924-1.461,4.391a1.07,1.07,0,0,1-.562.721h-.375a1.064,1.064,0,0,1-.517-.515ZM51.972,367.1c.324-.042.651-.063.971-.129a4.557,4.557,0,0,0,3.592-4.434c0-.067-.049-.179-.1-.2a3.567,3.567,0,0,1-1.424-1.071.315.315,0,0,0-.4-.087,7.339,7.339,0,0,1-5.211.015.376.376,0,0,0-.481.105,3.449,3.449,0,0,1-1.39,1.038c-.054.019-.1.144-.1.219A4.6,4.6,0,0,0,51.972,367.1Zm4.5-6.327.063-.041c0-.389,0-.778,0-1.167A1.851,1.851,0,0,0,56.1,358.4a4.99,4.99,0,0,0-3.579-1.925,5.1,5.1,0,0,0-4.705,1.993,1.7,1.7,0,0,0-.381,1.034c-.01.375-.007.75-.006,1.125a.866.866,0,0,0,.038.16c.305-.309.582-.592.862-.875.418-.42.6-.444,1.14-.206a6,6,0,0,0,5.028,0c.559-.245.723-.225,1.159.21.276.279.548.565.822.847Zm-6.043,7.5c0,.493-.006.945,0,1.395a.7.7,0,0,0,.092.325c.381.651.772,1.3,1.161,1.944l.283.471a.9.9,0,0,0,.073-.088q.715-1.187,1.429-2.38a.332.332,0,0,0,.054-.15c0-.5,0-.994,0-1.514a6.082,6.082,0,0,1-3.1,0ZM46.716,377.6a.808.808,0,1,0-.565-.237A.81.81,0,0,0,46.716,377.6Z" transform="translate(-5 183)" fill="#fff"/>
    <g id="Group_30" data-name="Group 30" transform="translate(-7 196)">
      <path id="Path_17-2" data-name="Path 17" d="M65.091,425.142l-.242-.243a3.107,3.107,0,0,0-4.3-.083c-.084.078.132-.136-2.095,2.091v-6.754a2.112,2.112,0,0,0-2.127-1.981h-.873v-1.594h.464a1.434,1.434,0,0,0,1.411-1.383v-2.722A1.5,1.5,0,0,0,55.917,411H44.583a1.5,1.5,0,0,0-1.411,1.473V415.2a1.434,1.434,0,0,0,1.411,1.383h.37v1.594h-.732A2.211,2.211,0,0,0,42,420.153v12.784A2.293,2.293,0,0,0,44.221,435h12.1a2.079,2.079,0,0,0,.893-.209,3.105,3.105,0,0,0,3.312-.7l4.561-4.561A3.106,3.106,0,0,0,65.091,425.142Zm-3.636.752a1.7,1.7,0,0,1,2.4,0l.242.242a1.7,1.7,0,0,1,.066,2.33c-.052.058.132-.128-1.8,1.8l-2.642-2.642Zm-10.5-10.722v-2.766H52.68v2.766Zm-3.247,0v-2.766h1.84v2.766Zm8.215-2.685v2.671a11.951,11.951,0,0,1-1.835.014v-2.766h1.779A.241.241,0,0,1,55.922,412.487Zm-11.344,2.671v-2.671a.241.241,0,0,1,.056-.081H46.3v2.766A10.758,10.758,0,0,1,44.578,415.158Zm1.781,1.42h7.688v1.594H46.359Zm-2.953,16.359V420.153c0-.206.411-.575.815-.575h12.1a.748.748,0,0,1,.721.575v8.16L55.9,429.46a3.108,3.108,0,0,0-.228,4.134H44.221A.943.943,0,0,1,43.406,432.937Zm16.13.16a1.7,1.7,0,0,1-2.4,0l-.242-.243a1.7,1.7,0,0,1,0-2.4l1.835-1.835,2.642,2.642Z" fill="#fff"/>
      <path id="Path_48-3" data-name="Path 48" d="M7.3,3.883H4.953V1.533a.7.7,0,1,0-1.406,0v2.35H1.2a.7.7,0,1,0,0,1.406h2.35v2.35a.7.7,0,1,0,1.406,0V5.289H7.3a.7.7,0,0,0,0-1.406Z" transform="translate(46.506 422.17)" fill="#fff"/>
    </g>
    <g id="Group_31" data-name="Group 31" transform="translate(-10.196 34)">
      <path id="Path_29-2" data-name="Path 29" d="M49.444,641.323v-.7h-.7v.7Zm6.738.7a.7.7,0,0,0,0-1.4Zm-8.437-1.4a.7.7,0,0,0,0,1.4Zm-1.677,16.5.641.282Zm8.533-7.3.64-.283Zm-5.326,0-.641-.281ZM56,659.231H47.9v1.4H56ZM50.144,649.02v-7.7h-1.4v7.7Zm-.7-7H54.43v-1.4H49.444Zm4.286-.7v7.694h1.4v-7.694Zm.7.7h1.752v-1.4H54.43Zm1.752-1.4H47.745v1.4h8.437Zm-2.221,9.487,2.151,4.858,1.28-.566-2.151-4.859Zm2.151,4.858L57.19,657.4l1.28-.566L57.392,654.4Zm-9.4,2.44,1.072-2.441L46.5,654.4l-1.072,2.441Zm1.072-2.441,2.135-4.861-1.282-.563L46.5,654.4Zm8.971-.282c.018-.7.018-.7.018-.7h-.018l-.065,0c-.059,0-.147-.007-.262-.014-.23-.015-.565-.042-.981-.089a23.912,23.912,0,0,1-3.234-.6l-.351,1.355a25.133,25.133,0,0,0,3.427.632c.44.05.8.079,1.049.095.125.008.223.013.291.016l.079,0h.031S56.734,655.385,56.752,654.685Zm-4.542-1.4a7.138,7.138,0,0,0-3.792.117,8.219,8.219,0,0,0-1.175.444c-.141.066-.253.124-.332.167-.039.021-.071.039-.093.052l-.027.015-.008.005,0,0h0l.362.6.362.6h0l.013-.007.062-.035c.057-.031.145-.077.261-.131a7.007,7.007,0,0,1,.976-.368,5.74,5.74,0,0,1,3.045-.1ZM47.9,659.231a1.3,1.3,0,0,1-1.19-1.823l-1.282-.563a2.7,2.7,0,0,0,2.472,3.786Zm8.1,1.4a2.7,2.7,0,0,0,2.469-3.793l-1.28.566A1.3,1.3,0,0,1,56,659.231ZM53.73,649.017a2.7,2.7,0,0,0,.231,1.093l1.28-.567a1.3,1.3,0,0,1-.111-.526Zm-4.986,0a1.3,1.3,0,0,1-.11.523l1.282.563a2.7,2.7,0,0,0,.228-1.086Z" fill="#fff"/>
    </g>
    <g id="Group_32" data-name="Group 32" transform="translate(-7.391 35)">
      <path id="Path_34-2" data-name="Path 34" d="M46.329,703.3l.6,7.172a1.042,1.042,0,0,0,1.046.966H58.895a1.055,1.055,0,0,0,1.04-.9l.95-6.559a.587.587,0,0,0-.112-.438.58.58,0,0,0-.388-.231C60.176,703.318,51.5,703.306,46.329,703.3Zm1.647,9.638a2.562,2.562,0,0,1-2.539-2.343L44.521,699.7l-1.507-.26a.752.752,0,0,1-.612-.868.759.759,0,0,1,.867-.611l2.08.36a.753.753,0,0,1,.619.677l.235,2.8c14.276.006,14.322.013,14.391.021a2.092,2.092,0,0,1,1.775,2.37l-.949,6.558a2.562,2.562,0,0,1-2.523,2.189H47.976Z" fill="#fff" fill-rule="evenodd"/>
      <path id="Path_35-2" data-name="Path 35" d="M57.288,707H54.516a.75.75,0,0,1,0-1.5h2.772a.75.75,0,0,1,0,1.5Z" fill="#fff" fill-rule="evenodd"/>
      <path id="Path_36-2" data-name="Path 36" d="M47.544,716a.205.205,0,0,0-.2.205c0,.227.411.227.411,0A.206.206,0,0,0,47.544,716Zm0,1.5a1.294,1.294,0,1,1,1.3-1.295A1.3,1.3,0,0,1,47.544,717.5Z" fill="#fff" fill-rule="evenodd"/>
      <path id="Path_37-2" data-name="Path 37" d="M58.825,716a.205.205,0,0,0-.2.205c0,.229.411.227.41,0A.206.206,0,0,0,58.825,716Zm0,1.5a1.294,1.294,0,1,1,1.3-1.295A1.3,1.3,0,0,1,58.825,717.5Z" fill="#fff" fill-rule="evenodd"/>
    </g>
    <g id="Group_33" data-name="Group 33" transform="translate(-5.938 485)">
      <path id="Path_4-2" data-name="Path 4" d="M57.6,303.379a3.652,3.652,0,1,1,0,7.3.75.75,0,0,1,0-1.5,2.152,2.152,0,1,0,0-4.3.75.75,0,0,1,0-1.5Z" fill="#fff"/>
      <path id="Path_5-2" data-name="Path 5" d="M58.981,312.337a10.129,10.129,0,0,1,1.515.218,2.869,2.869,0,0,1,2.246,1.392,2.133,2.133,0,0,1,0,1.829,2.879,2.879,0,0,1-2.239,1.4.75.75,0,0,1-.3-1.47c.652-.134,1.08-.348,1.186-.57a.631.631,0,0,0,0-.54c-.107-.224-.538-.439-1.2-.569a8.68,8.68,0,0,0-1.31-.19.75.75,0,1,1,.1-1.5Z" fill="#fff"/>
      <path id="Path_6-2" data-name="Path 6" d="M46.291,303.379a.75.75,0,0,1,0,1.5,2.152,2.152,0,1,0,0,4.3.75.75,0,0,1,0,1.5,3.652,3.652,0,1,1,0-7.3Z" fill="#fff"/>
      <path id="Path_7-2" data-name="Path 7" d="M44.9,312.337a.75.75,0,1,1,.1,1.5,8.623,8.623,0,0,0-1,.126l-.333.068c-.641.125-1.072.341-1.179.565a.627.627,0,0,0,0,.54c.105.222.533.436,1.185.57a.75.75,0,0,1-.3,1.47,2.876,2.876,0,0,1-2.237-1.4,2.124,2.124,0,0,1,0-1.829,2.707,2.707,0,0,1,2.017-1.344l.207-.044A10.272,10.272,0,0,1,44.9,312.337Z" fill="#fff"/>
      <path id="Path_8-2" data-name="Path 8" d="M51.939,312.96c-4.3,0-6.771.839-6.771,3.225s2.458,3.207,6.771,3.207l.6-.006c3.929-.077,6.169-.947,6.169-3.219,0-2.326-2.343-3.167-6.466-3.206Z" fill="#fff"/>
      <path id="Path_9-2" data-name="Path 9" d="M51.938,303.938a3.109,3.109,0,1,1-3.108,3.108A3.095,3.095,0,0,1,51.938,303.938Z" fill="#fff"/>
    </g>
    <g id="Group_34" data-name="Group 34" transform="translate(-4.279 60)">
      <path id="Path_49-2" data-name="Path 49" d="M60.807,815.235l-.622-1.08a1.913,1.913,0,0,0-2.609-.705h0a1.905,1.905,0,0,1-2.609-.677,1.832,1.832,0,0,1-.256-.916h0a1.914,1.914,0,0,0-1.913-1.968H51.544a1.9,1.9,0,0,0-1.9,1.913h0a1.913,1.913,0,0,1-1.913,1.886,1.832,1.832,0,0,1-.915-.256h0a1.912,1.912,0,0,0-2.609.705l-.668,1.1a1.913,1.913,0,0,0,.7,2.609h0a1.913,1.913,0,0,1,0,3.313h0a1.9,1.9,0,0,0-.7,2.6h0l.632,1.089a1.912,1.912,0,0,0,2.609.741h0a1.9,1.9,0,0,1,2.6.7,1.831,1.831,0,0,1,.256.915h0a1.913,1.913,0,0,0,1.913,1.913H52.8a1.913,1.913,0,0,0,1.913-1.9h0a1.9,1.9,0,0,1,1.913-1.913,1.95,1.95,0,0,1,.915.257h0a1.913,1.913,0,0,0,2.609-.7h0l.659-1.1a1.9,1.9,0,0,0-.7-2.609h0a1.9,1.9,0,0,1-.7-2.609,1.88,1.88,0,0,1,.7-.7h0a1.914,1.914,0,0,0,.7-2.6h0Z" transform="translate(-4 -16)" fill="none" stroke="#fff" stroke-linecap="round" stroke-linejoin="round" stroke-width="1.5" fill-rule="evenodd"/>
      <circle id="Ellipse_1-2" data-name="Ellipse 1" cx="2.636" cy="2.636" r="2.636" transform="translate(45.539 800.864)" fill="none" stroke="#fff" stroke-linecap="round" stroke-linejoin="round" stroke-width="1.5"/>
    </g>
    <g id="Group_35" data-name="Group 35" transform="translate(35 925)">
      <rect id="Rectangle_1" data-name="Rectangle 1" width="32" height="32" rx="16" fill="#fff2ec"/>
      <path id="Path_51" data-name="Path 51" d="M16,8a8,8,0,1,0,8,8A8,8,0,0,0,16,8Zm2.182,11.089a2.542,2.542,0,0,1-1.705.779V21h-.947V19.874a2.481,2.481,0,0,1-2.3-2.16l1.465-.382a1.273,1.273,0,0,0,1.348,1.237,1.044,1.044,0,0,0,.788-.265.9.9,0,0,0,.252-.64.7.7,0,0,0-.252-.588,4.552,4.552,0,0,0-1.121-.508,6.6,6.6,0,0,1-1.221-.536,2.017,2.017,0,0,1-.714-.74,2.2,2.2,0,0,1-.274-1.111,2.464,2.464,0,0,1,.49-1.5,2.19,2.19,0,0,1,1.541-.812V11h.947v.874a2.291,2.291,0,0,1,2.056,1.8l-1.3.535q-.382-1.1-1.181-1.1a.862.862,0,0,0-.644.246.818.818,0,0,0-.243.6.668.668,0,0,0,.234.549,4.023,4.023,0,0,0,1,.473,8.9,8.9,0,0,1,1.323.582,2.079,2.079,0,0,1,.767.757,2.177,2.177,0,0,1,.286,1.129A2.389,2.389,0,0,1,18.182,19.089Z" fill="#e75c25"/>
    </g>
    <g id="Group_36" data-name="Group 36" transform="translate(35 975)">
      <rect id="Rectangle_2" data-name="Rectangle 2" width="32" height="32" rx="16" fill="#fff6e6"/>
      <path id="Path_52" data-name="Path 52" d="M14.334,8c.2.042.4.073.591.127a3.329,3.329,0,1,1-1.505-.07c.1-.017.193-.038.289-.057Z" fill="#e89f23"/>
      <path id="Path_53" data-name="Path 53" d="M17.826,24a.953.953,0,0,0,.542-.542c.417-.855.846-1.7,1.271-2.555.025-.05.053-.1.091-.172.039.059.07.1.1.149.409.682.823,1.362,1.225,2.049a.76.76,0,0,0,.73.41c.458-.007.917-.015,1.372,0a.768.768,0,0,0,.85-.528V24Z" fill="#fff"/>
      <path id="Path_54" data-name="Path 54" d="M19.334,17.344c-.243.1-.484.188-.705.308a1.784,1.784,0,0,0-.742.8l-.562,1.125a1.488,1.488,0,0,0-.276-.111,4.656,4.656,0,0,0-.747-.122c-.519-.019-1.04.006-1.559-.008a1.994,1.994,0,0,0-1.95,2.6A.43.43,0,0,1,12.8,22H8.626a.517.517,0,0,1-.594-.59c0-.687,0-1.375,0-2.062a3.33,3.33,0,0,1,2.806-3.308,2.8,2.8,0,0,1,.45-.038c1.813,0,3.627-.012,5.441,0a3.218,3.218,0,0,1,2.533,1.239c.023.028.044.058.065.087C19.334,17.34,19.334,17.351,19.334,17.344Z" fill="#e89f23"/>
    </g>
    <g id="Group_37" data-name="Group 37" transform="translate(35 1025)">
      <rect id="Rectangle_3" data-name="Rectangle 3" width="32" height="32" rx="16" fill="#fbf4ff"/>
      <path id="Path_55" data-name="Path 55" d="M17.574,24c-.116-.026-.232-.048-.347-.078a2.492,2.492,0,0,1-1.161-4.163q1.826-1.855,3.681-3.681a2.355,2.355,0,0,1,2.542-.593,2.406,2.406,0,0,1,1.681,2,.729.729,0,0,0,.028.088v.562a.5.5,0,0,0-.029.083,2.4,2.4,0,0,1-.676,1.358q-1.854,1.863-3.716,3.717a2.423,2.423,0,0,1-1.129.631c-.1.027-.208.049-.315.073Zm3.392-4c.477-.47.958-.928,1.42-1.407a1.047,1.047,0,0,0,.254-.987,1.162,1.162,0,0,0-1.952-.592c-.443.431-.875.873-1.313,1.31a.379.379,0,0,0-.038.05Zm-2.6-.654c-.458.455-.924.909-1.379,1.372a1.062,1.062,0,0,0-.3.87,1.108,1.108,0,0,0,.752,1,1.12,1.12,0,0,0,1.235-.27c.288-.278.566-.566.851-.847.167-.163.336-.322.5-.476Z" fill="#652b88"/>
      <path id="Path_56" data-name="Path 56" d="M17.53,16.411c-.33.327-.648.641-.964.956-.438.437-.87.88-1.314,1.311A3.857,3.857,0,0,0,14.033,21.2c0,.036-.008.072-.015.129-.052,0-.106.011-.159.011H8.619a.521.521,0,0,1-.59-.6v-2.2a2.49,2.49,0,0,1,2.528-2.531q2.784,0,5.567,0A2.583,2.583,0,0,1,17.53,16.411Z" fill="#652b88"/>
      <path id="Path_57" data-name="Path 57" d="M13.753,14.672a2.408,2.408,0,0,0,1.6-1.121,2.137,2.137,0,0,0,.324-1.185,2.265,2.265,0,0,1-2.327-2.132,2.356,2.356,0,0,1-.73,1.545,2.313,2.313,0,0,1-1.57.577c-.191.895.683,1.943,1.919,2.308-.776,0-1.55.038-2.319-.013a1.082,1.082,0,0,1-.95-1.107c-.012-.723-.024-1.447.019-2.167a3.652,3.652,0,0,1,7.214-.443,3.879,3.879,0,0,1,.079.758c.012.592.005,1.185,0,1.778a1.155,1.155,0,0,1-1.19,1.208c-.655.005-1.31,0-1.965,0A.9.9,0,0,1,13.753,14.672Z" fill="#652b88"/>
      <path id="Path_58" data-name="Path 58" d="M20.965,20l-1.628-1.625a.381.381,0,0,1,.038-.05c.437-.437.87-.879,1.313-1.31a1.162,1.162,0,0,1,1.952.592,1.051,1.051,0,0,1-.254.987C21.925,19.074,21.442,19.531,20.965,20Z" fill="#fff"/>
    </g>
    <g id="Group_38" data-name="Group 38" transform="translate(35.654 1115)">
      <circle id="Ellipse_2" data-name="Ellipse 2" cx="26" cy="26" r="26" transform="translate(0.346)" fill="#fff6e6"/>
      <path id="Path_59" data-name="Path 59" d="M35.346,21.4A2.058,2.058,0,0,1,33.467,22.5c-.5,1.226-.048,1.9-.309,2.981-.262,1.106-1.331,1.562-1.593,2.476-.309,1.178.143,2.909.309,4.543.4-.048,1.664.529,1.141,1.49h-2.14a40.682,40.682,0,0,1-1.141-4.11c-.238,1.947-.9,1.8-2.14,2.812,1.046-.264,2.972-.192,2.877,1.3H23.934a3.378,3.378,0,0,0-.832-.409,8.337,8.337,0,0,1-2.306.409c-2.853-.168-3.542-.337-4.351-2.812-.737-3.1,2.877-6.995,3.019-5.288.024.409-2.687,2.6-2.045,5.288.594,2.524,3.162,1.947,3.851,1.562-.808-7.74,4.137-8.437,4.137-8.437a20.18,20.18,0,0,0,3.78-1.827c.452-.385.832-1.875,1.427-2.812.9-1.418,2.5-1.418,3.733-2.668a3.359,3.359,0,0,1-.143,2.332C34.942,19.644,34.942,20.822,35.346,21.4Z" fill="#e89f23"/>
    </g>
    <g id="Group_39" data-name="Group 39" transform="translate(35.654 1195)">
      <circle id="Ellipse_3" data-name="Ellipse 3" cx="26" cy="26" r="26" transform="translate(0.346)" fill="#ffece4"/>
      <path id="Path_60" data-name="Path 60" d="M38.145,20.029c-.264-.051-1.081-.279-1.16-.3a.48.48,0,0,1-.29-.38.967.967,0,0,0-.448-.836,5.349,5.349,0,0,0-.765-.38,2.9,2.9,0,0,0-1.424-.076,2.54,2.54,0,0,0-1,.506,6.715,6.715,0,0,0-.949.962,11.582,11.582,0,0,1-1.608,1.6,6.04,6.04,0,0,1-1.635.582,2.639,2.639,0,0,0-1.107.278,2.8,2.8,0,0,1-1.424.405,27.393,27.393,0,0,1-3.375-.076,6.63,6.63,0,0,0-1.793-.1c-.58.127-.817.228-1.028.152A3.655,3.655,0,0,0,19,22.232c-.369.025-1.134.329-1.45.38a3.15,3.15,0,0,1-1.45-.253,17.533,17.533,0,0,0-1.872-.709,1.281,1.281,0,0,0-.764,0c-.132.076-.237.456.132.81.369.329,1.266,1.139,1.582,1.342a3.4,3.4,0,0,0,1.608.582,4.164,4.164,0,0,0,1.292-.152c.185-.051.369-.127.343-.076a16.089,16.089,0,0,1-.527,1.671,20.675,20.675,0,0,0-.791,2.507,4.1,4.1,0,0,1-.712,1.747,1.706,1.706,0,0,0-.87.987c-.264.633-.422,2.3-.527,2.532a.782.782,0,0,0-.026.76.656.656,0,0,0,.422.2,2.151,2.151,0,0,0,.369.051.945.945,0,0,0,.448-.051c.132-.076.264-.2.211-.3-.053-.127-.4-.253-.422-.582a4.78,4.78,0,0,1,.264-1.494,4.608,4.608,0,0,1,.58-.912c.211-.2.369-.532.527-.608s1.45-1.139,1.45-1.139A7.29,7.29,0,0,0,17.9,31.8a7.761,7.761,0,0,0,.369,1.317c.079.177.132.582.5.633a4,4,0,0,0,1.107,0c.185-.051.316-.431.158-.557a1.243,1.243,0,0,0-.712-.177c-.158-.025-.237-.051-.29-.557A2.656,2.656,0,0,1,19,31.347a3.62,3.62,0,0,1,.659-.861,9.932,9.932,0,0,0,1.687-1.317c.527-.557.9-1.013.949-1.063s.343-.582.659-.532c.316.076,1.371.354,1.371.354a3.585,3.585,0,0,1,1.318.506,4,4,0,0,0,1.951.608c.764.076,1.292.1,1.292.1a1.631,1.631,0,0,1,.527.886c.053.481.158.911.158,1.165a7,7,0,0,0,.079.836c.026.127.053,1.038.079,1.165.026.1.053.608.105.76a3.791,3.791,0,0,0,.343.81,1.44,1.44,0,0,0,.712.228,1.223,1.223,0,0,0,.58-.076.521.521,0,0,0,.132-.329.424.424,0,0,0-.132-.152,2.661,2.661,0,0,0,.633.1,1.272,1.272,0,0,0,.58-.1.358.358,0,0,0,0-.557.84.84,0,0,0-.685-.2c-.211.025-.554-.405-.554-.709,0-.279.079-1.114.105-1.291a17.184,17.184,0,0,1,.4-2.026c.211-.709.053-.709.475-1.139A6.065,6.065,0,0,0,33.9,26.08a4.445,4.445,0,0,1,.29-1.9c.316-.582.764-1.646.817-1.722s.185-.734.264-.734a9.955,9.955,0,0,0,1.74.152,5.281,5.281,0,0,0,.791-.329c.185-.025.343-.278.4-.557a2.67,2.67,0,0,0,.105-.608C38.355,20.282,38.408,20.054,38.145,20.029Z" fill="#e75c25"/>
    </g>
    <g id="Group_40" data-name="Group 40" transform="translate(35.654 1275)">
      <circle id="Ellipse_4" data-name="Ellipse 4" cx="26" cy="26" r="26" transform="translate(0.346)" fill="#fbf4ff"/>
      <path id="Path_61" data-name="Path 61" d="M25.779,33.418a6.728,6.728,0,0,1,1.96.2c1.415.811.61,1.375.61,1.375H23.885a8.3,8.3,0,0,1-2.569-.631,2.047,2.047,0,0,1-2.569.2c-1.023-1.082.24-2.231.24-2.231a7.757,7.757,0,0,1,.566-5.588c2.33-4.1,6.99-2.3,6.99-2.3,1.524.406,1.459-.631,1.459-.631a2.639,2.639,0,0,1,.087-.721c-3.919-.045-5.008-1.915-5.008-1.915,3.832-1.149,5.749.428,5.749.428l.5-.406C26.911,19.56,27.652,16,27.652,16a6.776,6.776,0,0,1,3.4,4.867,2.842,2.842,0,0,1,2.308,1.577,5.474,5.474,0,0,0,.718.991c.5.5.153.721.153.721a1.552,1.552,0,0,1-1.111,1.262.022.022,0,0,0-.022.023,1.323,1.323,0,0,0-.5,1.217c.61,2.524-2.286,4.394-2.286,4.394a15.327,15.327,0,0,1-.2,2.343.406.406,0,0,0,.022.27,2.309,2.309,0,0,1,.588.158.723.723,0,0,1,.2.991,2.24,2.24,0,0,1-1.546,0c-.762-.2-1.241-2.456-1.241-2.456C27.782,33.013,25.779,33.418,25.779,33.418Zm7.011-10.207a.248.248,0,1,0-.239-.248A.246.246,0,0,0,32.791,23.211Z" fill="#652b88"/>
    </g>
    <g id="Group_41" data-name="Group 41" transform="translate(36 1349)">
      <circle id="Ellipse_5" data-name="Ellipse 5" cx="34.5" cy="34.5" r="34.5" fill="#fae9e5"/>
      <path id="Path_62" data-name="Path 62" d="M35,59A24,24,0,1,0,11,35,24,24,0,0,0,35,59ZM31.121,26.879a3,3,0,0,0-4.243,4.243L30.757,35l-3.879,3.879a3,3,0,0,0,4.243,4.243L35,39.243l3.879,3.879a3,3,0,0,0,4.243-4.243L39.243,35l3.879-3.879a3,3,0,0,0-4.243-4.243L35,30.757Z" fill="#f87171" fill-rule="evenodd"/>
    </g>
    <g id="Group_42" data-name="Group 42" transform="translate(33.5 1075.218)">
      <path id="Path_63" data-name="Path 63" d="M1.5,11.684V11.5a2.958,2.958,0,0,1,.494-1.494,4,4,0,0,0,.98-1.9c0-.548,0-1.1.048-1.651C3.27,3.823,5.877,2,8.452,2h.064C11.09,2,13.7,3.823,13.952,6.459c.048.548,0,1.1.04,1.651a4.071,4.071,0,0,0,.981,1.909,2.882,2.882,0,0,1,.494,1.486v.172a2.93,2.93,0,0,1-.694,1.963,3.7,3.7,0,0,1-2.344,1.126,37.034,37.034,0,0,1-7.9,0A3.742,3.742,0,0,1,2.186,13.64,2.961,2.961,0,0,1,1.5,11.684Z" transform="translate(0 -0.217)" fill="none" stroke="#000" stroke-linecap="round" stroke-linejoin="round" stroke-width="1.5" fill-rule="evenodd"/>
      <path id="Path_64" data-name="Path 64" d="M7.555,20.852a2.535,2.535,0,0,0,3.523.415,2.368,2.368,0,0,0,.43-.415" transform="translate(-1.08 -3.58)" fill="none" stroke="#000" stroke-linecap="round" stroke-linejoin="round" stroke-width="1.5"/>
      <circle id="Ellipse_6" data-name="Ellipse 6" cx="2.165" cy="2.165" r="2.165" transform="translate(10.076 0.782)" fill="#e75c25"/>
    </g>
    <g id="Group_43" data-name="Group 43" transform="translate(34.222 891.222)">
      <circle id="Ellipse_7" data-name="Ellipse 7" cx="8.989" cy="8.989" r="8.989" transform="translate(0.778 0.778)" fill="none" stroke="#130f26" stroke-linecap="round" stroke-linejoin="round" stroke-width="1.5"/>
      <path id="Path_65" data-name="Path 65" d="M16.019,16.485,19.543,20" fill="none" stroke="#130f26" stroke-linecap="round" stroke-linejoin="round" stroke-width="1.5"/>
    </g>
    <g id="Group_44" data-name="Group 44" transform="translate(36 1447)">
      <circle id="Ellipse_8" data-name="Ellipse 8" cx="34.5" cy="34.5" r="34.5" fill="#d6fbed"/>
      <path id="Path_66" data-name="Path 66" d="M35,58.5a24,24,0,1,0-24-24A24,24,0,0,0,35,58.5ZM46.121,30.621a3,3,0,0,0-4.243-4.243L32,36.257l-3.879-3.879a3,3,0,0,0-4.243,4.243l6,6a3,3,0,0,0,4.243,0Z" fill="#34d399" fill-rule="evenodd"/>
    </g>
    <g id="Group_48" data-name="Group 48" transform="translate(34.25 1537.25)">
      <path id="Path_67" data-name="Path 67" d="M19.25,10A9.25,9.25,0,1,1,10,.751,9.25,9.25,0,0,1,19.25,10Z" fill="none" stroke="#8e8e93" stroke-linecap="round" stroke-linejoin="round" stroke-width="1.5" fill-rule="evenodd"/>
      <path id="Path_68" data-name="Path 68" d="M13.432,12.943l-3.77-2.249V5.847" fill="none" stroke="#8e8e93" stroke-linecap="round" stroke-linejoin="round" stroke-width="1.5"/>
    </g>
    <g id="Group_49" data-name="Group 49" transform="translate(34 1569)">
      <path id="Path_39-3" data-name="Path 39" d="M14.443,12.31h.009" fill="none" stroke="#8e8e93" stroke-linecap="round" stroke-linejoin="round" stroke-width="1.5"/>
      <path id="Path_40-3" data-name="Path 40" d="M10.005,12.31h.009" fill="none" stroke="#8e8e93" stroke-linecap="round" stroke-linejoin="round" stroke-width="1.5"/>
      <path id="Path_41-3" data-name="Path 41" d="M5.558,12.31h.009" fill="none" stroke="#8e8e93" stroke-linecap="round" stroke-linejoin="round" stroke-width="1.5"/>
      <path id="Path_42-3" data-name="Path 42" d="M14.443,16.2h.009" fill="none" stroke="#8e8e93" stroke-linecap="round" stroke-linejoin="round" stroke-width="1.5"/>
      <path id="Path_43-3" data-name="Path 43" d="M10.005,16.2h.009" fill="none" stroke="#8e8e93" stroke-linecap="round" stroke-linejoin="round" stroke-width="1.5"/>
      <path id="Path_44-3" data-name="Path 44" d="M5.558,16.2h.009" fill="none" stroke="#8e8e93" stroke-linecap="round" stroke-linejoin="round" stroke-width="1.5"/>
      <path id="Path_45-3" data-name="Path 45" d="M14.043,1V4.291" fill="none" stroke="#8e8e93" stroke-linecap="round" stroke-linejoin="round" stroke-width="1.5"/>
      <path id="Path_46-3" data-name="Path 46" d="M5.965,1V4.291" fill="none" stroke="#8e8e93" stroke-linecap="round" stroke-linejoin="round" stroke-width="1.5"/>
      <path id="Path_47-3" data-name="Path 47" d="M14.238,2.579H5.771C2.834,2.579,1,4.215,1,7.222v9.05C1,19.326,2.834,21,5.771,21h8.458C17.175,21,19,19.355,19,16.347V7.222C19.009,4.215,17.184,2.579,14.238,2.579Z" fill="none" stroke="#8e8e93" stroke-linecap="round" stroke-linejoin="round" stroke-width="1.5" fill-rule="evenodd"/>
    </g>
    <path id="Path_72" data-name="Path 72" d="M27.865,9.66A48.087,48.087,0,0,1,22.7,7.674a1.388,1.388,0,0,1-.794-1.39c0-1.456-1.456-5.627-7.878-5.627-7.878,0-9.466,4.435-10,5.892a17.41,17.41,0,0,0-.728,3.178,30.4,30.4,0,0,1-.861,3.707.6.6,0,0,0-.331-.066c-.794,0-1.523,1.456-1.721,1.92C.26,15.552-.336,17.008.26,17.6a34.73,34.73,0,0,0,14.167,8.54l.331.132c.066,0,.2.066.265.066.4,0,.861-.132,1.39-1.92.463-1.523.463-2.251-.066-2.582A4.689,4.689,0,0,1,18.6,19.193a14.41,14.41,0,0,1,3.575-.927c.728-.132,1.523-.265,2.317-.463a5.776,5.776,0,0,0,3.839-3.045,3.963,3.963,0,0,0,1.655-2.847C29.984,10.587,28.527,9.925,27.865,9.66Zm-13.041,14.1a4.561,4.561,0,0,1-.2.53A32.316,32.316,0,0,1,1.65,16.479c.066-.2.132-.463.2-.662a1.441,1.441,0,0,1,.331-.53A35.6,35.6,0,0,0,15.023,22.9C14.956,23.165,14.89,23.5,14.824,23.761ZM27.2,13.368a.678.678,0,0,0-.331.4,3.96,3.96,0,0,1-2.78,2.251c-.728.2-1.523.331-2.251.463-.265.066-.463.066-.728.132-3.707.794-8.738-.6-8.8-.6a.819.819,0,0,0-.4,1.589,28.057,28.057,0,0,0,4.7.861,6.5,6.5,0,0,0-1.787,2.714,33.7,33.7,0,0,1-11.055-6.62A21.067,21.067,0,0,0,4.96,9.991a19.351,19.351,0,0,1,.662-2.913c.463-1.324,1.721-4.766,8.407-4.766,5.958,0,6.223,3.972,6.223,3.972a3.085,3.085,0,0,0,1.589,2.847,44.357,44.357,0,0,0,5.428,2.118,3.237,3.237,0,0,1,.993.6A2.227,2.227,0,0,1,27.2,13.368Z" transform="translate(35 1607.343)"/>
    <g id="Group_53" data-name="Group 53" transform="translate(34.666 1649.334)">
      <path id="Path_73" data-name="Path 73" d="M10.9,19.328c-5.681,0-8.561.976-8.561,2.9,0,1.944,2.88,2.929,8.561,2.929s8.559-.976,8.559-2.9C19.454,20.313,16.575,19.328,10.9,19.328Zm0,7.832c-2.612,0-10.561,0-10.561-4.929,0-4.395,6.028-4.9,10.561-4.9,2.612,0,10.559,0,10.559,4.929C21.454,26.652,15.427,27.16,10.9,27.16Z" fill-rule="evenodd"/>
      <path id="Path_74" data-name="Path 74" d="M10.9,2.57a5.176,5.176,0,0,0-.039,10.352l.039.952v-.952a5.176,5.176,0,0,0,0-10.352Zm0,12.255h-.043a7.1,7.1,0,1,1,.043,0Z" fill-rule="evenodd"/>
    </g>
    <g id="Group_54" data-name="Group 54" transform="translate(34.333 1688.167)">
      <path id="Path_75" data-name="Path 75" d="M3.167,4.167A.833.833,0,0,0,2.334,5V16.667a.833.833,0,0,0,.833.833H14.834a.833.833,0,0,0,.833-.833V5a.833.833,0,0,0-.833-.833ZM.667,5a2.5,2.5,0,0,1,2.5-2.5H14.834a2.5,2.5,0,0,1,2.5,2.5V16.667a2.5,2.5,0,0,1-2.5,2.5H3.167a2.5,2.5,0,0,1-2.5-2.5Z" fill="#aeaeb2" fill-rule="evenodd"/>
      <path id="Path_76" data-name="Path 76" d="M12.333.833a.833.833,0,0,1,.833.833V5A.833.833,0,0,1,11.5,5V1.667A.833.833,0,0,1,12.333.833Z" fill="#aeaeb2" fill-rule="evenodd"/>
      <path id="Path_77" data-name="Path 77" d="M5.666.833a.833.833,0,0,1,.833.833V5A.833.833,0,1,1,4.833,5V1.667A.833.833,0,0,1,5.666.833Z" fill="#aeaeb2" fill-rule="evenodd"/>
    </g>
  </g>
</svg>
