<svg xmlns="http://www.w3.org/2000/svg" width="16.591" height="16.591" viewBox="0 0 16.591 16.591">
  <g id="Group_60" data-name="Group 60" transform="translate(-0.75 -0.659)">
    <path id="Path_100" data-name="Path 100" d="M1.409,2.909A2.25,2.25,0,0,1,3,2.25H8.25a.75.75,0,0,1,0,1.5H3a.75.75,0,0,0-.75.75V15a.75.75,0,0,0,.75.75H13.5a.75.75,0,0,0,.75-.75V9.75a.75.75,0,0,1,1.5,0V15a2.25,2.25,0,0,1-2.25,2.25H3A2.25,2.25,0,0,1,.75,15V4.5A2.25,2.25,0,0,1,1.409,2.909Z" fill="#652b88" fill-rule="evenodd"/>
    <path id="Path_101" data-name="Path 101" d="M15,2.159a.841.841,0,0,0-.595.246L7.427,9.383l-.4,1.586,1.586-.4,6.978-6.978A.841.841,0,0,0,15,2.159Zm-1.655-.814a2.341,2.341,0,1,1,3.311,3.311L9.53,11.78a.749.749,0,0,1-.348.2l-3,.75a.75.75,0,0,1-.91-.91l.75-3a.75.75,0,0,1,.2-.348Z" fill="#652b88" fill-rule="evenodd"/>
  </g>
</svg>
